<?xml version="1.0" ?><svg xmlns="http://www.w3.org/2000/svg" xmlns:xlink="http://www.w3.org/1999/xlink" version="1.1" viewBox="0 0 128 128" style="enable-background:new 0 0 128 128;" xml:space="preserve"><g id="_x36_"><path style="fill:#FB7700;" d="M83.474,50.62v0.012c-0.441,0.267-0.766,0.569-0.929,0.906c-1.428,2.915-2.81,5.609-3.983,9.163   c-0.592,1.788-1.15,3.635-1.649,5.435c-5.214,0.557-12.983,1.661-20.346,1.951c-0.639-2.021-1.707-3.6-3.112-4.518   c-1.254-0.813-2.694-1.057-4.065-0.697c-1.01,0.267-1.916,0.859-2.648,1.707c-0.046-1.185-0.023-2.45,0.035-3.751h0.476   c2.323,0,4.216-1.893,4.216-4.216c0-2.276-1.812-4.134-4.065-4.204c0.128-1.545,0.232-3.159,0.256-4.541   c0.778,0.999,1.777,1.684,2.892,1.986c0.406,0.104,0.825,0.163,1.243,0.163c0.975,0,1.939-0.29,2.822-0.859   c1.382-0.906,2.439-2.439,3.078-4.401C66.264,46.056,77.726,52.664,83.474,50.62z"/><path style="fill:#F7C959;" d="M50.319,56.612c0,1.746-1.423,3.17-3.17,3.17h-3.798c1.022-1.048,1.615-2.305,1.615-3.659   c0-0.961-0.297-1.86-0.829-2.681h3.012c0.035,0,0.079,0,0.114,0.009C48.957,53.504,50.319,54.901,50.319,56.612z M53.422,110.725   c0.62-5.728,3.625-34.396,2.387-40.943c-0.497-2.627-1.643-4.361-2.988-5.235c-2.094-1.359-4.664-0.648-6.013,1.978   c-0.25,0.49-0.46,1.044-0.611,1.667c-0.004,0.005-0.005,0.011-0.005,0.016c-0.148,0.595-0.248,1.252-0.287,1.97   c-0.446,8.057,2.915,18.156,2.915,18.156c0.002,0.006,0.001,0.009,0,0.014c0.095,0.614,0.558,2.798,0.446,3.49   c0,0,0.992,11.493,0.947,17.603c-5.904-0.278-7.141,1.144-10.043,1.486c-0.377,0.044-0.426,0.574-0.061,0.677   c2.545,0.717,5.173,1.327,8.339,1.054c1.609-0.139,2.879-0.127,3.716-0.086c0.546,0.027,0.997-0.334,1.145-0.836l0.003,0   c0,0,0.002-0.016,0.002-0.018c0.022-0.078,0.056-0.15,0.061-0.233L53.422,110.725z M54.536,1.24   c-0.005-0.084-0.04-0.156-0.061-0.233c0-0.002-0.002-0.018-0.002-0.018l-0.003,0c-0.148-0.502-0.6-0.863-1.145-0.836   c-0.837,0.042-2.107,0.053-3.716-0.086c-3.167-0.273-5.794,0.337-8.339,1.054c-0.366,0.103-0.317,0.632,0.061,0.677   c2.902,0.341,4.14,1.764,10.043,1.486c0.046,6.11-0.947,17.603-0.947,17.603c0.112,0.692-0.351,2.876-0.446,3.49   c0.001,0.006,0.001,0.008,0,0.014c0,0-3.361,10.098-2.915,18.156c0.039,0.718,0.139,1.375,0.287,1.97   c0.001,0.006,0.002,0.011,0.005,0.016c0.152,0.623,0.361,1.177,0.611,1.667c1.348,2.626,3.919,3.338,6.013,1.978   c1.345-0.873,2.491-2.607,2.988-5.235C58.208,36.397,55.203,7.728,54.583,2L54.536,1.24z M42.712,52.548   c-1.939-3.008-4.03-5.098-9.186-5.098c-0.883,0-1.742,0.058-2.578,0.186c-5.702,0.801-9.987,4.227-9.987,8.327   c0,4.343,4.808,7.932,11.032,8.443c0.499,0.047,1.01,0.07,1.533,0.07c4.413,0,5.958-1.545,8.187-3.856   c1.301-1.336,2.055-2.938,2.055-4.657C43.769,54.743,43.397,53.593,42.712,52.548z"/><path style="fill:#000538;" d="M94.179,72.197c0,0.012-0.012,0.012-0.012,0.012c-3.612,4.785-7.386,8.257-7.386,8.257   c-0.035,0.105-0.232,1.254-0.534,3.112c-1.405,8.64-5.052,34.7-5.145,36.628c-0.035,0.65-0.476,1.208,0.244,1.73   c0.546,0.406,0.43,1.289-0.197,1.545c-2.23,0.987-9.349,2.892-11.497,4.076c-2.532,1.405-5.435-0.848-3.542-2.462   c1.893-1.614,9.105-6.05,9.105-6.05s0.43-29.591,0.708-39.183c0,0,1.127-5.981,2.95-12.624c0.499-1.8,1.057-3.647,1.649-5.435   c1.173-3.554,2.555-6.248,3.983-9.163c0.163-0.337,0.488-0.639,0.929-0.906c3.414-2.102,14.052-1.951,14.691,5.191   C100.403,62.036,97.686,67.587,94.179,72.197z M106.473,113.493c-0.817-0.34-11.268-39.431-10.989-40.208   c-3.617,4.784-7.385,8.253-7.385,8.253c-0.036,0.097-0.23,1.25-0.535,3.116c3.951,9.051,9.884,22.471,12.161,27.617   c-2.506,0.905-6.136,2.157-7.674,2.393c-2.444,0.379-0.821,4.209,2.069,4.351c2.447,0.116,5.174-1.934,11.323-3.012   C106.893,115.749,107.621,113.97,106.473,113.493z M32.481,62.21c-0.267-2.253-11.16-4.262-11.16-4.262s5.063,0.337,5.934-3.437   c0.871-3.774,5.226-6.236,5.226-6.236c-0.209-0.337-0.743-0.546-1.533-0.639c-5.702,0.801-9.987,4.227-9.987,8.327   c0,4.343,4.808,7.932,11.032,8.443C32.342,63.697,32.562,62.93,32.481,62.21z"/></g><g id="Layer_1"/></svg>